<mxfile host="65bd71144e">
    <diagram name="Seite-1" id="Vo2bzJwYtOl2JpAORBUL">
        <mxGraphModel dx="656" dy="514" grid="1" gridSize="10" guides="1" tooltips="1" connect="1" arrows="1" fold="1" page="1" pageScale="1" pageWidth="827" pageHeight="1169" math="0" shadow="0">
            <root>
                <mxCell id="0"/>
                <mxCell id="1" parent="0"/>
                <mxCell id="gM5_TtbuUqLfuSXUXOJD-10" value="" style="rounded=0;whiteSpace=wrap;html=1;movable=1;resizable=1;rotatable=1;deletable=1;editable=1;locked=0;connectable=1;" parent="1" vertex="1">
                    <mxGeometry x="1194" y="240" width="460" height="320" as="geometry"/>
                </mxCell>
                <mxCell id="gM5_TtbuUqLfuSXUXOJD-74" value="" style="rounded=0;whiteSpace=wrap;html=1;dashed=1;" parent="1" vertex="1">
                    <mxGeometry x="1298" y="430" width="262" height="80" as="geometry"/>
                </mxCell>
                <mxCell id="gM5_TtbuUqLfuSXUXOJD-7" value="" style="edgeStyle=orthogonalEdgeStyle;rounded=0;orthogonalLoop=1;jettySize=auto;html=1;" parent="1" source="gM5_TtbuUqLfuSXUXOJD-1" edge="1">
                    <mxGeometry relative="1" as="geometry">
                        <mxPoint x="630" y="390" as="targetPoint"/>
                    </mxGeometry>
                </mxCell>
                <mxCell id="gM5_TtbuUqLfuSXUXOJD-1" value="" style="rounded=0;whiteSpace=wrap;html=1;" parent="1" vertex="1">
                    <mxGeometry x="90" y="230" width="460" height="320" as="geometry"/>
                </mxCell>
                <mxCell id="gM5_TtbuUqLfuSXUXOJD-5" value="Create Game" style="rounded=0;whiteSpace=wrap;html=1;" parent="1" vertex="1">
                    <mxGeometry x="255" y="430" width="120" height="30" as="geometry"/>
                </mxCell>
                <mxCell id="gM5_TtbuUqLfuSXUXOJD-8" value="Join Game" style="text;html=1;strokeColor=none;fillColor=none;align=center;verticalAlign=middle;whiteSpace=wrap;rounded=0;" parent="1" vertex="1">
                    <mxGeometry x="90" y="190" width="60" height="30" as="geometry"/>
                </mxCell>
                <mxCell id="gM5_TtbuUqLfuSXUXOJD-18" value="" style="group" parent="1" vertex="1" connectable="0">
                    <mxGeometry x="1397" y="340" width="40" height="60" as="geometry"/>
                </mxCell>
                <mxCell id="gM5_TtbuUqLfuSXUXOJD-16" value="" style="rounded=0;whiteSpace=wrap;html=1;" parent="gM5_TtbuUqLfuSXUXOJD-18" vertex="1">
                    <mxGeometry width="40" height="60" as="geometry"/>
                </mxCell>
                <mxCell id="gM5_TtbuUqLfuSXUXOJD-17" value="" style="shape=image;html=1;verticalAlign=top;verticalLabelPosition=bottom;labelBackgroundColor=#ffffff;imageAspect=0;aspect=fixed;image=https://cdn0.iconfinder.com/data/icons/phosphor-fill-vol-4/256/spade-fill-128.png" parent="gM5_TtbuUqLfuSXUXOJD-18" vertex="1">
                    <mxGeometry x="8" y="18" width="24" height="24" as="geometry"/>
                </mxCell>
                <mxCell id="gM5_TtbuUqLfuSXUXOJD-19" value="" style="group" parent="1" vertex="1" connectable="0">
                    <mxGeometry x="1350" y="450" width="20" height="30" as="geometry"/>
                </mxCell>
                <mxCell id="gM5_TtbuUqLfuSXUXOJD-20" value="" style="rounded=0;whiteSpace=wrap;html=1;" parent="gM5_TtbuUqLfuSXUXOJD-19" vertex="1">
                    <mxGeometry width="20" height="30" as="geometry"/>
                </mxCell>
                <mxCell id="gM5_TtbuUqLfuSXUXOJD-21" value="" style="shape=image;html=1;verticalAlign=top;verticalLabelPosition=bottom;labelBackgroundColor=#ffffff;imageAspect=0;aspect=fixed;image=https://cdn0.iconfinder.com/data/icons/phosphor-fill-vol-4/256/spade-fill-128.png" parent="gM5_TtbuUqLfuSXUXOJD-19" vertex="1">
                    <mxGeometry x="4" y="9" width="10.666666666666666" height="10.666666666666666" as="geometry"/>
                </mxCell>
                <mxCell id="gM5_TtbuUqLfuSXUXOJD-22" value="" style="group;fillColor=#d5e8d4;strokeColor=#82b366;" parent="1" vertex="1" connectable="0">
                    <mxGeometry x="1374" y="450" width="20" height="30" as="geometry"/>
                </mxCell>
                <mxCell id="gM5_TtbuUqLfuSXUXOJD-23" value="" style="rounded=0;whiteSpace=wrap;html=1;fillColor=#D5E8D4;strokeColor=#82b366;" parent="gM5_TtbuUqLfuSXUXOJD-22" vertex="1">
                    <mxGeometry width="20" height="30" as="geometry"/>
                </mxCell>
                <mxCell id="gM5_TtbuUqLfuSXUXOJD-24" value="" style="shape=image;html=1;verticalAlign=top;verticalLabelPosition=bottom;labelBackgroundColor=#ffffff;imageAspect=0;aspect=fixed;image=https://cdn0.iconfinder.com/data/icons/phosphor-fill-vol-4/256/spade-fill-128.png" parent="gM5_TtbuUqLfuSXUXOJD-22" vertex="1">
                    <mxGeometry x="4" y="9" width="10.666666666666666" height="10.666666666666666" as="geometry"/>
                </mxCell>
                <mxCell id="gM5_TtbuUqLfuSXUXOJD-25" value="" style="group" parent="1" vertex="1" connectable="0">
                    <mxGeometry x="1398" y="451" width="20" height="30" as="geometry"/>
                </mxCell>
                <mxCell id="gM5_TtbuUqLfuSXUXOJD-26" value="" style="rounded=0;whiteSpace=wrap;html=1;" parent="gM5_TtbuUqLfuSXUXOJD-25" vertex="1">
                    <mxGeometry width="20" height="30" as="geometry"/>
                </mxCell>
                <mxCell id="gM5_TtbuUqLfuSXUXOJD-27" value="" style="shape=image;html=1;verticalAlign=top;verticalLabelPosition=bottom;labelBackgroundColor=#ffffff;imageAspect=0;aspect=fixed;image=https://cdn0.iconfinder.com/data/icons/phosphor-fill-vol-4/256/spade-fill-128.png" parent="gM5_TtbuUqLfuSXUXOJD-25" vertex="1">
                    <mxGeometry x="4" y="9" width="10.666666666666666" height="10.666666666666666" as="geometry"/>
                </mxCell>
                <mxCell id="gM5_TtbuUqLfuSXUXOJD-28" value="" style="group" parent="1" vertex="1" connectable="0">
                    <mxGeometry x="1423" y="452" width="20" height="30" as="geometry"/>
                </mxCell>
                <mxCell id="gM5_TtbuUqLfuSXUXOJD-29" value="" style="rounded=0;whiteSpace=wrap;html=1;" parent="gM5_TtbuUqLfuSXUXOJD-28" vertex="1">
                    <mxGeometry width="20" height="30" as="geometry"/>
                </mxCell>
                <mxCell id="gM5_TtbuUqLfuSXUXOJD-30" value="" style="shape=image;html=1;verticalAlign=top;verticalLabelPosition=bottom;labelBackgroundColor=#ffffff;imageAspect=0;aspect=fixed;image=https://cdn0.iconfinder.com/data/icons/phosphor-fill-vol-4/256/spade-fill-128.png" parent="gM5_TtbuUqLfuSXUXOJD-28" vertex="1">
                    <mxGeometry x="4" y="9" width="10.666666666666666" height="10.666666666666666" as="geometry"/>
                </mxCell>
                <mxCell id="gM5_TtbuUqLfuSXUXOJD-31" value="" style="group" parent="1" vertex="1" connectable="0">
                    <mxGeometry x="1447" y="450" width="20" height="30" as="geometry"/>
                </mxCell>
                <mxCell id="gM5_TtbuUqLfuSXUXOJD-32" value="" style="rounded=0;whiteSpace=wrap;html=1;" parent="gM5_TtbuUqLfuSXUXOJD-31" vertex="1">
                    <mxGeometry width="20" height="30" as="geometry"/>
                </mxCell>
                <mxCell id="gM5_TtbuUqLfuSXUXOJD-33" value="" style="shape=image;html=1;verticalAlign=top;verticalLabelPosition=bottom;labelBackgroundColor=#ffffff;imageAspect=0;aspect=fixed;image=https://cdn0.iconfinder.com/data/icons/phosphor-fill-vol-4/256/spade-fill-128.png" parent="gM5_TtbuUqLfuSXUXOJD-31" vertex="1">
                    <mxGeometry x="4" y="9" width="10.666666666666666" height="10.666666666666666" as="geometry"/>
                </mxCell>
                <mxCell id="gM5_TtbuUqLfuSXUXOJD-34" value="" style="group" parent="1" vertex="1" connectable="0">
                    <mxGeometry x="1477" y="450" width="20" height="30" as="geometry"/>
                </mxCell>
                <mxCell id="gM5_TtbuUqLfuSXUXOJD-35" value="" style="rounded=0;whiteSpace=wrap;html=1;" parent="gM5_TtbuUqLfuSXUXOJD-34" vertex="1">
                    <mxGeometry width="20" height="30" as="geometry"/>
                </mxCell>
                <mxCell id="gM5_TtbuUqLfuSXUXOJD-36" value="" style="shape=image;html=1;verticalAlign=top;verticalLabelPosition=bottom;labelBackgroundColor=#ffffff;imageAspect=0;aspect=fixed;image=https://cdn0.iconfinder.com/data/icons/phosphor-fill-vol-4/256/spade-fill-128.png" parent="gM5_TtbuUqLfuSXUXOJD-34" vertex="1">
                    <mxGeometry x="4" y="9" width="10.666666666666666" height="10.666666666666666" as="geometry"/>
                </mxCell>
                <mxCell id="gM5_TtbuUqLfuSXUXOJD-41" value="" style="rounded=0;whiteSpace=wrap;html=1;movable=0;resizable=0;rotatable=0;deletable=0;editable=0;locked=1;connectable=0;" parent="1" vertex="1">
                    <mxGeometry x="630" y="240" width="460" height="320" as="geometry"/>
                </mxCell>
                <mxCell id="gM5_TtbuUqLfuSXUXOJD-63" value="" style="rounded=0;whiteSpace=wrap;html=1;" parent="1" vertex="1">
                    <mxGeometry x="660" y="270" width="120" height="180" as="geometry"/>
                </mxCell>
                <mxCell id="gM5_TtbuUqLfuSXUXOJD-64" value="Player" style="text;html=1;strokeColor=none;fillColor=none;align=center;verticalAlign=middle;whiteSpace=wrap;rounded=0;" parent="1" vertex="1">
                    <mxGeometry x="690" y="240" width="60" height="30" as="geometry"/>
                </mxCell>
                <mxCell id="gM5_TtbuUqLfuSXUXOJD-65" value="Lukas 🎮" style="text;html=1;strokeColor=#d6b656;fillColor=#fff2cc;align=center;verticalAlign=middle;whiteSpace=wrap;rounded=0;" parent="1" vertex="1">
                    <mxGeometry x="660" y="270" width="120" height="30" as="geometry"/>
                </mxCell>
                <mxCell id="gM5_TtbuUqLfuSXUXOJD-66" value="Bernd 🎮" style="text;html=1;strokeColor=#6c8ebf;fillColor=#dae8fc;align=center;verticalAlign=middle;whiteSpace=wrap;rounded=0;" parent="1" vertex="1">
                    <mxGeometry x="660" y="300" width="120" height="30" as="geometry"/>
                </mxCell>
                <mxCell id="gM5_TtbuUqLfuSXUXOJD-67" value="Sarah ❌" style="text;html=1;strokeColor=#82b366;fillColor=#d5e8d4;align=center;verticalAlign=middle;whiteSpace=wrap;rounded=0;" parent="1" vertex="1">
                    <mxGeometry x="660" y="330" width="120" height="30" as="geometry"/>
                </mxCell>
                <mxCell id="gM5_TtbuUqLfuSXUXOJD-68" value="Rules" style="text;html=1;strokeColor=none;fillColor=none;align=center;verticalAlign=middle;whiteSpace=wrap;rounded=0;" parent="1" vertex="1">
                    <mxGeometry x="890" y="240" width="60" height="30" as="geometry"/>
                </mxCell>
                <mxCell id="gM5_TtbuUqLfuSXUXOJD-69" value="&lt;h1&gt;&lt;br&gt;&lt;/h1&gt;&lt;div&gt;Puristic:&lt;/div&gt;&lt;div&gt;-&amp;gt; Jack can not be played last&amp;nbsp;&lt;/div&gt;&lt;div&gt;-&amp;gt; etc&lt;/div&gt;" style="text;html=1;strokeColor=none;fillColor=none;spacing=5;spacingTop=-20;whiteSpace=wrap;overflow=hidden;rounded=0;" parent="1" vertex="1">
                    <mxGeometry x="827" y="230" width="190" height="120" as="geometry"/>
                </mxCell>
                <mxCell id="gM5_TtbuUqLfuSXUXOJD-70" value="Leave" style="rounded=0;whiteSpace=wrap;html=1;" parent="1" vertex="1">
                    <mxGeometry x="660" y="520" width="120" height="29" as="geometry"/>
                </mxCell>
                <mxCell id="gM5_TtbuUqLfuSXUXOJD-71" value="Set to ready" style="rounded=0;whiteSpace=wrap;html=1;" parent="1" vertex="1">
                    <mxGeometry x="950" y="520" width="120" height="29" as="geometry"/>
                </mxCell>
                <mxCell id="gM5_TtbuUqLfuSXUXOJD-72" value="Player View" style="text;html=1;strokeColor=none;fillColor=none;align=center;verticalAlign=middle;whiteSpace=wrap;rounded=0;" parent="1" vertex="1">
                    <mxGeometry x="640" y="200" width="60" height="30" as="geometry"/>
                </mxCell>
                <mxCell id="gM5_TtbuUqLfuSXUXOJD-73" value="" style="endArrow=classic;html=1;rounded=0;entryX=-0.012;entryY=0.459;entryDx=0;entryDy=0;entryPerimeter=0;" parent="1" target="gM5_TtbuUqLfuSXUXOJD-10" edge="1">
                    <mxGeometry width="50" height="50" relative="1" as="geometry">
                        <mxPoint x="1090" y="390" as="sourcePoint"/>
                        <mxPoint x="1170" y="340" as="targetPoint"/>
                    </mxGeometry>
                </mxCell>
                <mxCell id="gM5_TtbuUqLfuSXUXOJD-75" value="Handcards" style="text;html=1;strokeColor=none;fillColor=none;align=center;verticalAlign=middle;whiteSpace=wrap;rounded=0;" parent="1" vertex="1">
                    <mxGeometry x="1318" y="580" width="60" height="30" as="geometry"/>
                </mxCell>
                <mxCell id="gM5_TtbuUqLfuSXUXOJD-76" value="" style="endArrow=classic;html=1;rounded=0;exitX=0.5;exitY=0;exitDx=0;exitDy=0;entryX=0.21;entryY=1.013;entryDx=0;entryDy=0;entryPerimeter=0;" parent="1" source="gM5_TtbuUqLfuSXUXOJD-75" target="gM5_TtbuUqLfuSXUXOJD-74" edge="1">
                    <mxGeometry width="50" height="50" relative="1" as="geometry">
                        <mxPoint x="1360" y="570" as="sourcePoint"/>
                        <mxPoint x="1410" y="520" as="targetPoint"/>
                    </mxGeometry>
                </mxCell>
                <mxCell id="gM5_TtbuUqLfuSXUXOJD-77" value="play card" style="rounded=0;whiteSpace=wrap;html=1;" parent="1" vertex="1">
                    <mxGeometry x="1380.5" y="520" width="73" height="29" as="geometry"/>
                </mxCell>
                <mxCell id="gM5_TtbuUqLfuSXUXOJD-79" value="Handcards left" style="text;html=1;strokeColor=none;fillColor=none;align=center;verticalAlign=middle;whiteSpace=wrap;rounded=0;" parent="1" vertex="1">
                    <mxGeometry x="1205.5" y="270" width="89" height="30" as="geometry"/>
                </mxCell>
                <mxCell id="gM5_TtbuUqLfuSXUXOJD-80" value="" style="rounded=0;whiteSpace=wrap;html=1;" parent="1" vertex="1">
                    <mxGeometry x="1211" y="305" width="79" height="115" as="geometry"/>
                </mxCell>
                <mxCell id="gM5_TtbuUqLfuSXUXOJD-81" value="Lukas 1" style="text;html=1;strokeColor=#d6b656;fillColor=#fff2cc;align=center;verticalAlign=middle;whiteSpace=wrap;rounded=0;" parent="1" vertex="1">
                    <mxGeometry x="1210" y="300" width="80" height="30" as="geometry"/>
                </mxCell>
                <mxCell id="gM5_TtbuUqLfuSXUXOJD-82" value="Bernd 20" style="text;html=1;strokeColor=#6c8ebf;fillColor=#dae8fc;align=center;verticalAlign=middle;whiteSpace=wrap;rounded=0;" parent="1" vertex="1">
                    <mxGeometry x="1210" y="330" width="80" height="30" as="geometry"/>
                </mxCell>
                <mxCell id="gM5_TtbuUqLfuSXUXOJD-83" value="Sarah 6" style="text;html=1;strokeColor=#82b366;fillColor=#d5e8d4;align=center;verticalAlign=middle;whiteSpace=wrap;rounded=0;" parent="1" vertex="1">
                    <mxGeometry x="1210" y="360" width="80" height="30" as="geometry"/>
                </mxCell>
                <mxCell id="gM5_TtbuUqLfuSXUXOJD-91" value="" style="edgeStyle=orthogonalEdgeStyle;rounded=0;orthogonalLoop=1;jettySize=auto;html=1;" parent="1" source="gM5_TtbuUqLfuSXUXOJD-84" target="gM5_TtbuUqLfuSXUXOJD-90" edge="1">
                    <mxGeometry relative="1" as="geometry"/>
                </mxCell>
                <mxCell id="gM5_TtbuUqLfuSXUXOJD-84" value="" style="rounded=0;whiteSpace=wrap;html=1;" parent="1" vertex="1">
                    <mxGeometry x="90" y="630" width="460" height="320" as="geometry"/>
                </mxCell>
                <mxCell id="gM5_TtbuUqLfuSXUXOJD-85" value="MauMau" style="text;html=1;strokeColor=none;fillColor=none;align=center;verticalAlign=middle;whiteSpace=wrap;rounded=0;" parent="1" vertex="1">
                    <mxGeometry x="260" y="690" width="110" height="30" as="geometry"/>
                </mxCell>
                <mxCell id="gM5_TtbuUqLfuSXUXOJD-86" value="Join Game" style="rounded=0;whiteSpace=wrap;html=1;" parent="1" vertex="1">
                    <mxGeometry x="255" y="720" width="120" height="30" as="geometry"/>
                </mxCell>
                <mxCell id="gM5_TtbuUqLfuSXUXOJD-87" value="Create Game" style="rounded=0;whiteSpace=wrap;html=1;" parent="1" vertex="1">
                    <mxGeometry x="255" y="830" width="120" height="30" as="geometry"/>
                </mxCell>
                <mxCell id="gM5_TtbuUqLfuSXUXOJD-88" value="Create Game" style="text;html=1;strokeColor=none;fillColor=none;align=center;verticalAlign=middle;whiteSpace=wrap;rounded=0;" parent="1" vertex="1">
                    <mxGeometry x="90" y="590" width="60" height="30" as="geometry"/>
                </mxCell>
                <mxCell id="gM5_TtbuUqLfuSXUXOJD-89" value="Name" style="rounded=0;whiteSpace=wrap;html=1;" parent="1" vertex="1">
                    <mxGeometry x="255" y="760" width="120" height="20" as="geometry"/>
                </mxCell>
                <mxCell id="gM5_TtbuUqLfuSXUXOJD-90" value="" style="rounded=0;whiteSpace=wrap;html=1;" parent="1" vertex="1">
                    <mxGeometry x="630" y="630" width="460" height="320" as="geometry"/>
                </mxCell>
                <mxCell id="gM5_TtbuUqLfuSXUXOJD-92" value="Leave" style="rounded=0;whiteSpace=wrap;html=1;" parent="1" vertex="1">
                    <mxGeometry x="660" y="910" width="120" height="29" as="geometry"/>
                </mxCell>
                <mxCell id="gM5_TtbuUqLfuSXUXOJD-93" value="Start game" style="rounded=0;whiteSpace=wrap;html=1;" parent="1" vertex="1">
                    <mxGeometry x="950" y="910" width="120" height="29" as="geometry"/>
                </mxCell>
                <mxCell id="gM5_TtbuUqLfuSXUXOJD-94" value="" style="rounded=0;whiteSpace=wrap;html=1;" parent="1" vertex="1">
                    <mxGeometry x="660" y="680" width="120" height="180" as="geometry"/>
                </mxCell>
                <mxCell id="gM5_TtbuUqLfuSXUXOJD-95" value="Player" style="text;html=1;strokeColor=none;fillColor=none;align=center;verticalAlign=middle;whiteSpace=wrap;rounded=0;" parent="1" vertex="1">
                    <mxGeometry x="690" y="650" width="60" height="30" as="geometry"/>
                </mxCell>
                <mxCell id="gM5_TtbuUqLfuSXUXOJD-96" value="Lukas 🎮" style="text;html=1;strokeColor=#d6b656;fillColor=#fff2cc;align=center;verticalAlign=middle;whiteSpace=wrap;rounded=0;" parent="1" vertex="1">
                    <mxGeometry x="660" y="680" width="120" height="30" as="geometry"/>
                </mxCell>
                <mxCell id="gM5_TtbuUqLfuSXUXOJD-97" value="Bernd 🎮" style="text;html=1;strokeColor=#6c8ebf;fillColor=#dae8fc;align=center;verticalAlign=middle;whiteSpace=wrap;rounded=0;" parent="1" vertex="1">
                    <mxGeometry x="660" y="710" width="120" height="30" as="geometry"/>
                </mxCell>
                <mxCell id="gM5_TtbuUqLfuSXUXOJD-98" value="Sarah ❌" style="text;html=1;strokeColor=#82b366;fillColor=#d5e8d4;align=center;verticalAlign=middle;whiteSpace=wrap;rounded=0;" parent="1" vertex="1">
                    <mxGeometry x="660" y="740" width="120" height="30" as="geometry"/>
                </mxCell>
                <mxCell id="gM5_TtbuUqLfuSXUXOJD-99" value="Lobbycode: FC63KL" style="text;html=1;strokeColor=none;fillColor=none;align=center;verticalAlign=middle;whiteSpace=wrap;rounded=0;" parent="1" vertex="1">
                    <mxGeometry x="827" y="909" width="60" height="30" as="geometry"/>
                </mxCell>
                <mxCell id="gM5_TtbuUqLfuSXUXOJD-102" value="" style="shape=image;html=1;verticalAlign=top;verticalLabelPosition=bottom;labelBackgroundColor=#ffffff;imageAspect=0;aspect=fixed;image=https://cdn3.iconfinder.com/data/icons/uidesignicons/radiobutton_yes.png" parent="1" vertex="1">
                    <mxGeometry x="840" y="687" width="16" height="16" as="geometry"/>
                </mxCell>
                <mxCell id="gM5_TtbuUqLfuSXUXOJD-103" value="Puristic" style="text;html=1;strokeColor=none;fillColor=none;align=center;verticalAlign=middle;whiteSpace=wrap;rounded=0;" parent="1" vertex="1">
                    <mxGeometry x="856" y="680" width="60" height="30" as="geometry"/>
                </mxCell>
                <mxCell id="gM5_TtbuUqLfuSXUXOJD-104" value="Code" style="rounded=0;whiteSpace=wrap;html=1;" parent="1" vertex="1">
                    <mxGeometry x="255" y="790" width="120" height="20" as="geometry"/>
                </mxCell>
                <mxCell id="gM5_TtbuUqLfuSXUXOJD-105" value="MauMau" style="text;html=1;strokeColor=none;fillColor=none;align=center;verticalAlign=middle;whiteSpace=wrap;rounded=0;" parent="1" vertex="1">
                    <mxGeometry x="260" y="290" width="110" height="30" as="geometry"/>
                </mxCell>
                <mxCell id="gM5_TtbuUqLfuSXUXOJD-106" value="Join Game" style="rounded=0;whiteSpace=wrap;html=1;" parent="1" vertex="1">
                    <mxGeometry x="255" y="320" width="120" height="30" as="geometry"/>
                </mxCell>
                <mxCell id="gM5_TtbuUqLfuSXUXOJD-107" value="Name" style="rounded=0;whiteSpace=wrap;html=1;" parent="1" vertex="1">
                    <mxGeometry x="255" y="360" width="120" height="20" as="geometry"/>
                </mxCell>
                <mxCell id="gM5_TtbuUqLfuSXUXOJD-108" value="Code" style="rounded=0;whiteSpace=wrap;html=1;" parent="1" vertex="1">
                    <mxGeometry x="255" y="390" width="120" height="20" as="geometry"/>
                </mxCell>
                <mxCell id="gM5_TtbuUqLfuSXUXOJD-109" value="Rules" style="text;html=1;strokeColor=none;fillColor=none;align=center;verticalAlign=middle;whiteSpace=wrap;rounded=0;" parent="1" vertex="1">
                    <mxGeometry x="856" y="650" width="60" height="30" as="geometry"/>
                </mxCell>
                <mxCell id="gM5_TtbuUqLfuSXUXOJD-113" value="Player View" style="text;html=1;strokeColor=none;fillColor=none;align=center;verticalAlign=middle;whiteSpace=wrap;rounded=0;" parent="1" vertex="1">
                    <mxGeometry x="630" y="600" width="60" height="30" as="geometry"/>
                </mxCell>
                <mxCell id="2" value="Lobbycode: FC63KL" style="text;html=1;strokeColor=none;fillColor=none;align=center;verticalAlign=middle;whiteSpace=wrap;rounded=0;" parent="1" vertex="1">
                    <mxGeometry x="810" y="520" width="113" height="30" as="geometry"/>
                </mxCell>
            </root>
        </mxGraphModel>
    </diagram>
</mxfile>